# xmcd
#
# Track frame offsets:
#	150
#	13177
#	23400
#	37170
#	49725
#	67712
#	85385
#	101662
#	112722
#	126767
#	140112
#	149190
#	165677
#	181227
#	200347
#
# Disc length: 2922 seconds
#
# Revision: 3
# Processed by: cddbd v1.5.2PL0 Copyright (c) Steve Scherf et al.
# Submitted via: dBpowerAMP V4.0
#
DISCID=d00b680f
DTITLE=Daniel O'Donnell - Christmas With Daniel
DYEAR=1994
DGENRE=Country
TTITLE0=An Old Christmas Card
TTITLE1=Snowflake
TTITLE2=Pretty Paper
TTITLE3=I Saw Mommy Kissing Santa Claus
TTITLE4=White Christmas
TTITLE5=Christmas Long Ago
TTITLE6=When A Child Is Born
TTITLE7=Santa Claus Is Coming To Town
TTITLE8=Christmas In Innishfree
TTITLE9=Silver Bells
TTITLE10=Rockin' Around The Christmas Tree
TTITLE11=C.H.R.I.S.T.M.A.S.
TTITLE12=Christmas Story
TTITLE13=Silent Night
TTITLE14=The Gift
EXTD=
EXTT0=
EXTT1=
EXTT2=
EXTT3=
EXTT4=
EXTT5=
EXTT6=
EXTT7=
EXTT8=
EXTT9=
EXTT10=
EXTT11=
EXTT12=
EXTT13=
EXTT14=
PLAYORDER=
